HIERARCHY
ROOT Hips
{
	OFFSET 0.000000 0.000000 0.000000
	CHANNELS 6 Xposition Yposition Zposition Zrotation Yrotation Xrotation 
	JOINT LowerBack
	{
		OFFSET 0.000000 0.000000 0.000000
		CHANNELS 3 Zrotation Yrotation Xrotation
		JOINT Spine
		{
			OFFSET 0.028270 2.035590 -0.193380
			CHANNELS 3 Zrotation Yrotation Xrotation
			JOINT Spine1
			{
				OFFSET 0.056720 2.048850 -0.042750
				CHANNELS 3 Zrotation Yrotation Xrotation
				JOINT Neck
				{
					OFFSET 0.000000 0.000000 0.000000
					CHANNELS 3 Zrotation Yrotation Xrotation
					JOINT Neck1
					{
						OFFSET -0.054170 1.746240 0.172020
						CHANNELS 3 Zrotation Yrotation Xrotation
						JOINT Head
						{
							OFFSET 0.104070 1.761360 -0.123970
							CHANNELS 3 Zrotation Yrotation Xrotation
							End Site
							{
								OFFSET 0.000000 0.000000 0.000000
							}
						}
					}
				}
				JOINT LeftShoulder
				{
					OFFSET 0.000000 0.000000 0.000000
					CHANNELS 3 Zrotation Yrotation Xrotation
					JOINT LeftArm
					{
						OFFSET 3.362410 1.200890 -0.311210
						CHANNELS 3 Zrotation Yrotation Xrotation
						JOINT LeftForeArm
						{
							OFFSET 4.983000 -0.000000 -0.000000
							CHANNELS 3 Zrotation Yrotation Xrotation
							JOINT LeftHand
							{
								OFFSET 3.483560 -0.000000 -0.000000
								CHANNELS 3 Zrotation Yrotation Xrotation
								JOINT LeftFingerBase
								{
									OFFSET 0.000000 0.000000 0.000000
									CHANNELS 3 Zrotation Yrotation Xrotation
									JOINT LeftHandIndex1
									{
										OFFSET 0.715260 -0.000000 -0.000000
										CHANNELS 3 Zrotation Yrotation Xrotation
										End Site
										{
											OFFSET 0.000000 0.000000 0.000000
										}
									}
								}
								JOINT LThumb
								{
									OFFSET 0.000000 0.000000 0.000000
									CHANNELS 3 Zrotation Yrotation Xrotation
									End Site
									{
										OFFSET 0.000000 0.000000 0.000000
									}
								}
							}
						}
					}
				}
				JOINT RightShoulder
				{
					OFFSET 0.000000 0.000000 0.000000
					CHANNELS 3 Zrotation Yrotation Xrotation
					JOINT RightArm
					{
						OFFSET -3.136600 1.374050 -0.404650
						CHANNELS 3 Zrotation Yrotation Xrotation
						JOINT RightForeArm
						{
							OFFSET -5.241900 -0.000000 -0.000000
							CHANNELS 3 Zrotation Yrotation Xrotation
							JOINT RightHand
							{
								OFFSET -3.444170 -0.000000 -0.000000
								CHANNELS 3 Zrotation Yrotation Xrotation
								JOINT RightFingerBase
								{
									OFFSET 0.000000 0.000000 0.000000
									CHANNELS 3 Zrotation Yrotation Xrotation
									JOINT RightHandIndex1
									{
										OFFSET -0.622530 -0.000000 -0.000000
										CHANNELS 3 Zrotation Yrotation Xrotation
										End Site
										{
											OFFSET 0.000000 0.000000 0.000000
										}
									}
								}
								JOINT RThumb
								{
									OFFSET 0.000000 0.000000 0.000000
									CHANNELS 3 Zrotation Yrotation Xrotation
									End Site
									{
										OFFSET 0.000000 0.000000 0.000000
									}
								}
							}
						}
					}
				}
			}
		}
	}
}
}
MOTION
Frames: 18
Frame Time: 0.008333
12.443165 12.873471 2.899669 111.837232 -88.522439 -23.697120 1.643109 -2.239460 -1.297406 -0.667057 -2.416659 -2.787017 -4.493479 -2.649392 -0.813579 10.459677 -8.953311 -15.166848 -2.289653 -0.008081 -3.820931 0.000000 0.000000 0.000000 -6.260254 10.429508 5.621100 -64.138746 35.412120 -8.515792 0.256983 -9.449220 -0.006881 2.221386 -6.069198 -0.118981 0.021055 0.121758 0.000000 0.000000 0.000000 0.000000 0.000000 0.000000 0.000000 19.651729 -6.625512 5.562230 59.559780 -26.551205 -30.662906 -0.879441 1.102770 -0.016107 -3.284450 17.883203 -0.526628 0.001963 -0.305828 0.000000 0.000000 0.000000 0.000000 0.000000 0.000000 0.000000 
12.413806 12.859209 2.900210 111.878814 -88.518196 -23.587552 1.641167 -2.245774 -1.332494 -0.669212 -2.424799 -2.798984 -4.493774 -2.657992 -0.825584 10.482605 -9.031304 -15.182068 -2.280604 -0.006694 -3.828492 0.000000 0.000000 0.000000 -6.312006 10.454332 5.611996 -64.176165 35.329562 -8.284449 0.254109 -9.830030 -0.006912 2.135420 -6.025751 -0.113480 0.022587 0.123605 0.000000 0.000000 0.000000 0.000000 0.000000 0.000000 0.000000 19.675090 -6.702044 5.563873 59.595561 -26.350284 -30.545033 -0.879459 1.232783 -0.016035 -3.164324 17.854702 -0.506426 0.000405 -0.306914 0.000000 0.000000 0.000000 0.000000 0.000000 0.000000 0.000000 
12.383824 12.844280 2.900702 111.912025 -88.513553 -23.467557 1.639402 -2.253199 -1.369894 -0.671588 -2.434211 -2.811679 -4.494939 -2.667940 -0.837537 10.510200 -9.118110 -15.201032 -2.271505 -0.005237 -3.837326 0.000000 0.000000 0.000000 -6.363894 10.482547 5.603154 -64.222945 35.232330 -8.082179 0.252967 -10.221682 -0.006954 2.058017 -5.986002 -0.108579 0.024085 0.125553 0.000000 0.000000 0.000000 0.000000 0.000000 0.000000 0.000000 19.705324 -6.787443 5.565984 59.628220 -26.130101 -30.428298 -0.879746 1.370058 -0.015945 -3.038782 17.807329 -0.484723 -0.001230 -0.307871 0.000000 0.000000 0.000000 0.000000 0.000000 0.000000 0.000000 
12.353072 12.828637 2.901142 111.928698 -88.508243 -23.327128 1.638355 -2.262026 -1.410155 -0.674059 -2.445230 -2.825213 -4.497085 -2.679594 -0.849509 10.542463 -9.214506 -15.224874 -2.262472 -0.003700 -3.847894 0.000000 0.000000 0.000000 -6.415469 10.514804 5.595214 -64.281349 35.116696 -7.917616 0.254115 -10.618754 -0.007010 1.989492 -5.947585 -0.104178 0.025560 0.127568 0.000000 0.000000 0.000000 0.000000 0.000000 0.000000 0.000000 19.743391 -6.882339 5.568710 59.657121 -25.887425 -30.311880 -0.880619 1.517799 -0.015846 -2.910893 17.736703 -0.462321 -0.002914 -0.308684 0.000000 0.000000 0.000000 0.000000 0.000000 0.000000 0.000000 
12.321532 12.812392 2.901576 111.923276 -88.502223 -23.161723 1.638747 -2.272718 -1.453596 -0.676364 -2.458342 -2.839638 -4.500265 -2.693455 -0.861326 10.578522 -9.319381 -15.254460 -2.253695 -0.002088 -3.860505 0.000000 0.000000 0.000000 -6.466124 10.553086 5.588770 -64.352967 34.977380 -7.795746 0.257804 -11.015481 -0.007078 1.929259 -5.907251 -0.100278 0.027028 0.129602 0.000000 0.000000 0.000000 0.000000 0.000000 0.000000 0.000000 19.788634 -6.985626 5.572151 59.682526 -25.617535 -30.210487 -0.882639 1.674053 -0.015742 -2.779887 17.644910 -0.438920 -0.004677 -0.309364 0.000000 0.000000 0.000000 0.000000 0.000000 0.000000 0.000000 
12.289182 12.795672 2.901979 111.892444 -88.495568 -22.970285 1.641432 -2.285285 -1.500236 -0.678220 -2.473576 -2.855023 -4.504581 -2.709566 -0.872984 10.617620 -9.432101 -15.290411 -2.245309 -0.000408 -3.875356 0.000000 0.000000 0.000000 -6.515619 10.597666 5.584295 -64.439255 34.810281 -7.720773 0.263932 -11.406524 -0.007151 1.873364 -5.862844 -0.096579 0.028534 0.131608 0.000000 0.000000 0.000000 0.000000 0.000000 0.000000 0.000000 19.840273 -7.096381 5.576373 59.706713 -25.318286 -30.119700 -0.885839 1.842413 -0.015639 -2.652873 17.531738 -0.415918 -0.006429 -0.309923 0.000000 0.000000 0.000000 0.000000 0.000000 0.000000 0.000000 
12.255834 12.778493 2.902384 111.824470 -88.489208 -22.740619 1.647548 -2.299601 -1.549604 -0.679247 -2.490813 -2.871133 -4.510028 -2.727814 -0.884471 10.658201 -9.550228 -15.332683 -2.237619 0.001315 -3.892521 0.000000 0.000000 0.000000 -6.564141 10.649511 5.582227 -64.540047 34.608961 -7.691766 0.272735 -11.784686 -0.007224 1.820633 -5.810813 -0.092978 0.030104 0.133538 0.000000 0.000000 0.000000 0.000000 0.000000 0.000000 0.000000 19.897469 -7.211927 5.581364 59.731679 -24.986802 -30.055545 -0.890980 2.020320 -0.015551 -2.529975 17.405608 -0.393418 -0.008197 -0.310442 0.000000 0.000000 0.000000 0.000000 0.000000 0.000000 0.000000 
12.221447 12.760836 2.902774 111.738093 -88.482468 -22.490594 1.657148 -2.315843 -1.604983 -0.679397 -2.510384 -2.889247 -4.516751 -2.748567 -0.895648 10.698903 -9.671472 -15.380446 -2.230816 0.003041 -3.911574 0.000000 0.000000 0.000000 -6.613035 10.707491 5.582620 -64.654643 34.372654 -7.715977 0.283476 -12.145391 -0.007287 1.759978 -5.754946 -0.088878 0.031848 0.135404 0.000000 0.000000 0.000000 0.000000 0.000000 0.000000 0.000000 19.958387 -7.330291 5.586646 59.761412 -24.626804 -29.992055 -0.897272 2.216262 -0.015488 -2.426455 17.266975 -0.374115 -0.009748 -0.310968 0.000000 0.000000 0.000000 0.000000 0.000000 0.000000 0.000000 
12.186448 12.743964 2.903370 111.605874 -88.482880 -22.213251 1.676279 -2.333071 -1.642388 -0.676390 -2.530268 -2.901391 -4.523389 -2.769519 -0.909536 10.732345 -9.789591 -15.431906 -2.223848 0.004882 -3.932762 0.000000 0.000000 0.000000 -6.663478 10.765636 5.586336 -64.795330 34.090302 -7.798473 0.296809 -12.492365 -0.007336 1.678539 -5.700508 -0.083878 0.034008 0.137342 0.000000 0.000000 0.000000 0.000000 0.000000 0.000000 0.000000 20.010317 -7.441090 5.593376 59.813534 -24.234112 -29.921296 -0.905967 2.444154 -0.015494 -2.353344 17.118268 -0.359515 -0.011017 -0.311569 0.000000 0.000000 0.000000 0.000000 0.000000 0.000000 0.000000 
12.149293 12.724899 2.903437 111.453692 -88.475267 -21.887209 1.691330 -2.350505 -1.726529 -0.675513 -2.552737 -2.929044 -4.533979 -2.793751 -0.916512 10.775268 -9.913135 -15.489646 -2.220911 0.006355 -3.954480 0.000000 0.000000 0.000000 -6.713788 10.841057 5.591335 -64.917114 33.764850 -7.907524 0.311130 -12.777780 -0.007368 1.620635 -5.623019 -0.079778 0.035800 0.138731 0.000000 0.000000 0.000000 0.000000 0.000000 0.000000 0.000000 20.085985 -7.563300 5.597613 59.848770 -23.815858 -29.918272 -0.914963 2.648875 -0.015491 -2.278897 17.006423 -0.345616 -0.012253 -0.312509 0.000000 0.000000 0.000000 0.000000 0.000000 0.000000 0.000000 
12.111360 12.706661 2.903664 111.265345 -88.475359 -21.543394 1.716203 -2.368063 -1.797310 -0.671225 -2.574880 -2.952477 -4.544432 -2.817579 -0.925504 10.808687 -10.028306 -15.548329 -2.218099 0.007859 -3.977131 0.000000 0.000000 0.000000 -6.768717 10.914835 5.599328 -65.057698 33.385277 -8.082016 0.327330 -13.033430 -0.007378 1.534494 -5.556034 -0.074478 0.038055 0.140217 0.000000 0.000000 0.000000 0.000000 0.000000 0.000000 0.000000 20.148781 -7.673182 5.602230 59.913146 -23.372073 -29.881155 -0.925140 2.891036 -0.015577 -2.250689 16.900119 -0.339118 -0.012942 -0.313709 0.000000 0.000000 0.000000 0.000000 0.000000 0.000000 0.000000 
12.072133 12.688513 2.903770 111.026888 -88.479637 -21.156719 1.745956 -2.384149 -1.872027 -0.665514 -2.595959 -2.977386 -4.556017 -2.840489 -0.933471 10.839313 -10.139054 -15.608657 -2.216815 0.009236 -4.000232 0.000000 0.000000 0.000000 -6.827263 10.990039 5.609556 -65.198879 32.945778 -8.307178 0.345533 -13.236701 -0.007377 1.445642 -5.490484 -0.069078 0.040399 0.141567 0.000000 0.000000 0.000000 0.000000 0.000000 0.000000 0.000000 20.211182 -7.777403 5.606131 59.994539 -22.902816 -29.843151 -0.936138 3.148489 -0.015734 -2.253582 16.823405 -0.338020 -0.013249 -0.315322 0.000000 0.000000 0.000000 0.000000 0.000000 0.000000 0.000000 
12.031604 12.670511 2.903723 110.743423 -88.487414 -20.732749 1.780509 -2.398714 -1.954262 -0.658188 -2.616065 -3.005077 -4.568495 -2.862588 -0.939791 10.866750 -10.243423 -15.669661 -2.216937 0.010475 -4.023233 0.000000 0.000000 0.000000 -6.891205 11.067237 5.621705 -65.335540 32.441516 -8.589886 0.365512 -13.380323 -0.007371 1.354640 -5.434618 -0.063878 0.042793 0.142835 0.000000 0.000000 0.000000 0.000000 0.000000 0.000000 0.000000 20.270573 -7.874709 5.608850 60.094100 -22.410288 -29.793696 -0.947040 3.420934 -0.015957 -2.289514 16.780051 -0.342622 -0.013109 -0.317377 0.000000 0.000000 0.000000 0.000000 0.000000 0.000000 0.000000 
11.989693 12.652778 2.903515 110.394264 -88.499514 -20.251640 1.819910 -2.410971 -2.043963 -0.649125 -2.634409 -3.035559 -4.581547 -2.883077 -0.944377 10.891638 -10.341255 -15.731082 -2.218315 0.011587 -4.046039 0.000000 0.000000 0.000000 -6.961949 11.146009 5.635492 -65.462180 31.865761 -8.931508 0.387797 -13.458595 -0.007380 1.270874 -5.393689 -0.059278 0.045125 0.144064 0.000000 0.000000 0.000000 0.000000 0.000000 0.000000 0.000000 20.326617 -7.964916 5.610477 60.212095 -21.892975 -29.734618 -0.957718 3.704891 -0.016249 -2.354335 16.772547 -0.352324 -0.012575 -0.319881 0.000000 0.000000 0.000000 0.000000 0.000000 0.000000 0.000000 
11.946429 12.635670 2.903004 109.992022 -88.512968 -19.731952 1.860209 -2.420875 -2.137946 -0.639740 -2.650776 -3.067779 -4.594992 -2.901683 -0.947303 10.917646 -10.435621 -15.793861 -2.220912 0.012597 -4.068994 0.000000 0.000000 0.000000 -7.036675 11.224248 5.650811 -65.574297 31.212055 -9.329510 0.412863 -13.469521 -0.007426 1.207381 -5.368592 -0.055879 0.047234 0.145262 0.000000 0.000000 0.000000 0.000000 0.000000 0.000000 0.000000 20.383685 -8.050982 5.611176 60.346783 -21.347581 -29.656261 -0.967802 3.999869 -0.016604 -2.444988 16.798047 -0.366729 -0.011684 -0.322785 0.000000 0.000000 0.000000 0.000000 0.000000 0.000000 0.000000 
11.901754 12.619300 2.902264 109.505065 -88.529059 -19.141905 1.903378 -2.428294 -2.237729 -0.629103 -2.665088 -3.102383 -4.608387 -2.918340 -0.948727 10.944576 -10.525273 -15.858470 -2.224370 0.013548 -4.092240 0.000000 0.000000 0.000000 -7.118678 11.303518 5.667295 -65.666677 30.476547 -9.784007 0.441004 -13.414684 -0.007529 1.171375 -5.366630 -0.054080 0.049031 0.146524 0.000000 0.000000 0.000000 0.000000 0.000000 0.000000 0.000000 20.439117 -8.131989 5.611450 60.496812 -20.769278 -29.569492 -0.977302 4.299316 -0.017006 -2.552394 16.850939 -0.384331 -0.010563 -0.325998 -0.000000 0.000000 0.000000 0.000000 0.000000 0.000000 0.000000 
11.855953 12.604022 2.900915 109.039807 -88.542115 -18.593581 1.942820 -2.437525 -2.335657 -0.618935 -2.681075 -3.136303 -4.619811 -2.936583 -0.948820 10.975518 -10.609125 -15.927636 -2.227824 0.014596 -4.117060 0.000000 0.000000 0.000000 -7.202732 11.399709 5.685440 -65.732083 29.643942 -10.271556 0.472486 -13.301225 -0.007711 1.173611 -5.387203 -0.054282 0.050377 0.147949 0.000000 0.000000 0.000000 0.000000 0.000000 0.000000 0.000000 20.492726 -8.207288 5.611202 60.661708 -20.145217 -29.470056 -0.986711 4.599832 -0.017452 -2.670189 16.921768 -0.404134 -0.009338 -0.329374 0.000000 0.000000 0.000000 0.000000 0.000000 0.000000 0.000000 
11.796277 12.574363 2.898738 108.801963 -88.529606 -18.127716 1.981868 -2.433967 -2.774136 -0.617155 -2.702698 -3.295157 -4.675871 -2.965334 -0.917837 11.049747 -10.552304 -15.942933 -2.280922 0.008813 -4.107476 0.000000 0.000000 0.000000 -7.422056 11.381172 5.679212 -65.646831 29.096930 -10.977558 0.482206 -13.204597 -0.007840 1.213964 -5.447005 -0.056883 0.050141 0.147545 0.000000 0.000000 0.000000 0.000000 0.000000 0.000000 0.000000 20.707878 -8.185438 5.586295 60.707651 -19.823682 -29.605478 -0.966596 4.917830 -0.017374 -2.742002 17.019480 -0.417834 -0.007157 -0.332877 0.000000 0.000000 0.000000 0.000000 0.000000 0.000000 0.000000 
